<svg xmlns="http://www.w3.org/2000/svg" width="21" height="21" viewBox="0 0 21 21">
    <g fill="#9EA6AF" fill-rule="nonzero">
        <path d="M18.54 1.64h-.985V0h-1.64v1.64H5.084V0h-1.64v1.64h-.984A2.464 2.464 0 0 0 0 4.103v14.437A2.464 2.464 0 0 0 2.46 21h16.08A2.464 2.464 0 0 0 21 18.54V4.101a2.464 2.464 0 0 0-2.46-2.461zm.82 16.9c0 .451-.369.82-.82.82H2.46a.821.821 0 0 1-.82-.82V7.71h17.72v10.83zm0-12.47H1.64V4.102c0-.453.369-.82.82-.82h.985v1.64h1.64v-1.64h10.83v1.64h1.64v-1.64h.984c.452 0 .82.367.82.82V6.07z"/>
        <path d="M3.117 9.434h1.641v1.641H3.117zM6.398 9.434h1.641v1.641H6.398zM9.68 9.434h1.641v1.641H9.68zM12.961 9.434h1.641v1.641h-1.641zM16.242 9.434h1.641v1.641h-1.641zM3.117 12.715h1.641v1.641H3.117zM6.398 12.715h1.641v1.641H6.398zM9.68 12.715h1.641v1.641H9.68zM12.961 12.715h1.641v1.641h-1.641zM3.117 15.996h1.641v1.641H3.117zM6.398 15.996h1.641v1.641H6.398zM9.68 15.996h1.641v1.641H9.68zM12.961 15.996h1.641v1.641h-1.641zM16.242 12.715h1.641v1.641h-1.641z"/>
    </g>
</svg>
