<svg xmlns="http://www.w3.org/2000/svg" xmlns:xlink="http://www.w3.org/1999/xlink" width="13" height="18" viewBox="0 0 13 18">
    <defs>
        <path id="a" d="M0 17.455h13V0H0z"/>
    </defs>
    <g fill="none" fill-rule="evenodd">
        <path fill="#000" d="M9.126 6.474c.699 0 1.294-.45 1.518-1.077h-2.06V3.324a1.625 1.625 0 0 0 .542 3.15"/>
        <mask id="b" fill="#fff">
            <use xlink:href="#a"/>
        </mask>
        <path fill="#B9B9E0" d="M5.383 14.272h5.657v-.381H5.383v.381zM3.644 7.02a2.16 2.16 0 0 1-2.153-2.167 2.16 2.16 0 0 1 2.153-2.168v2.168h2.153a2.16 2.16 0 0 1-2.153 2.167zm-.789 4.786l-.895-.877.34-.371.516.505L4.042 9.56l.378.33-1.565 1.915zm0 2.92l-.895-.876.34-.371.516.505 1.226-1.502.378.33-1.565 1.915zM4.084 2.242a2.16 2.16 0 0 1 2.153 2.168H4.084V2.24zm5.042.443v2.168h2.153A2.16 2.16 0 0 1 9.126 7.02a2.16 2.16 0 0 1-2.153-2.168 2.16 2.16 0 0 1 2.153-2.168zm.44-.443a2.16 2.16 0 0 1 2.153 2.168H9.566V2.24zm1.506 14.615v-1.344h1.334l-1.334 1.344zm-.032-6.46H5.383v-.383h5.657v.382zm0 .956H5.383v-.382h5.657v.382zm0 1.964H5.383v-.382h5.657v.382zM13 15.454V0H0v17.455h11.014l1.986-2z" mask="url(#b)"/>
        <path fill="#B9B9E0" d="M3.102 5.397V3.323a1.625 1.625 0 0 0 .542 3.151c.699 0 1.295-.45 1.518-1.077h-2.06z" mask="url(#b)"/>
    </g>
</svg>
