<svg xmlns="http://www.w3.org/2000/svg" width="26" height="29" viewBox="0 0 26 29">
    <g fill="none" fill-rule="evenodd">
        <path fill="#5898D7" fill-rule="nonzero" d="M6 25c-1.1 0-2 .9-2 2s.9 2 2 2 2-.9 2-2-.9-2-2-2zM0 7v2.133h2.1l3.78 8.107-1.47 2.56c-.105.32-.21.747-.21 1.067C4.2 22.04 5.145 23 6.3 23h12.6v-2.133H6.72c-.105 0-.21-.107-.21-.214v-.106l.945-1.814h7.77c.84 0 1.47-.426 1.785-1.066l3.78-6.934c.21-.213.21-.32.21-.533 0-.64-.42-1.067-1.05-1.067H4.41L3.465 7H0zm17 18c-1.1 0-2 .9-2 2s.9 2 2 2 2-.9 2-2-.9-2-2-2z"/>
        <ellipse cx="18" cy="8.5" fill="#FD817C" rx="8" ry="8.5"/>
        <path fill="#FFF" fill-rule="nonzero" d="M16.357 11.154c0 .423.322.77.714.77h2.858c.392 0 .714-.347.714-.77V6.538h-4.286v4.616zM21 5.384h-1.25L19.393 5h-1.786l-.357.385H16v.769h5v-.77z"/>
    </g>
</svg>
