<svg xmlns="http://www.w3.org/2000/svg" width="15" height="16" viewBox="0 0 15 16">
    <g fill="#B9B9E0" fill-rule="nonzero">
        <path d="M6.591 7.636c.22.044.45-.202.605-.452L1.6.04.143 1.13l5.494 7.014c.192-.262.528-.592.954-.509zM6.51 8.035c-.233-.046-.46.237-.572.404l2.118 1.32-.68-2.123c-.205.244-.504.471-.867.4z"/>
        <path d="M4.98.882v2.813l2.663 3.41 1.152 3.596-3.339-2.078.014-.02-.49-.627v7.872h9.877V.882H4.979zm8.48 14.151H6.376v-.204h7.084v.204zm0-2.444H6.376v-.204h7.084v.204zm0-2.445H9.805v-.203h3.655v.203zm0-2.444H8.972v-.204h4.488V7.7zm0-2.445H7.21v-.204h6.25v.204zm0-2.444H6.376v-.204h7.084v.204z"/>
    </g>
</svg>
