<svg xmlns="http://www.w3.org/2000/svg" width="16" height="14" viewBox="0 0 16 14">
    <path fill="#B9B9E0" fill-rule="nonzero" d="M15.75 6.122c-.128-.071-1.137-.599-1.537-.76l-.496-1.05c.147-.347.43-1.32.48-1.49a.43.43 0 0 0-.144-.434l-.783-.68a.583.583 0 0 0-.496-.126c-.147.03-1.28.28-1.702.42l-1.2-.434C9.698 1.232 9.11.371 9.003.223A.551.551 0 0 0 8.55 0h-1.1a.558.558 0 0 0-.453.218c-.082.112-.685.996-.869 1.346l-1.2.434c-.397-.129-1.509-.377-1.702-.42a.586.586 0 0 0-.496.126l-.778.684a.428.428 0 0 0-.144.434c.034.13.32 1.12.48 1.49l-.496 1.05c-.384.153-1.368.666-1.538.76A.456.456 0 0 0 0 6.518v.962c0 .161.094.31.25.396.128.072 1.137.6 1.537.76l.496 1.05c-.147.348-.43 1.32-.48 1.49a.43.43 0 0 0 .144.434l.778.68c.13.115.317.162.496.127.147-.03 1.28-.28 1.702-.42l1.2.434c.175.336.762 1.197.869 1.345.097.14.27.225.458.224h1.099a.558.558 0 0 0 .453-.218c.081-.112.684-.996.868-1.346l1.2-.434c.397.129 1.51.377 1.703.42a.586.586 0 0 0 .496-.126l.777-.68a.428.428 0 0 0 .144-.434c-.033-.129-.32-1.12-.48-1.49l.496-1.05c.384-.152 1.368-.666 1.538-.76a.456.456 0 0 0 .256-.4v-.964a.452.452 0 0 0-.25-.396zM8 10.048c-1.925-.002-3.485-1.369-3.483-3.054.002-1.684 1.564-3.049 3.49-3.047C9.931 3.948 11.49 5.315 11.49 7c-.005 1.684-1.566 3.047-3.49 3.048z"/>
</svg>
