<svg xmlns="http://www.w3.org/2000/svg" width="18" height="18" viewBox="0 0 18 18">
    <path fill="#9EA6AF" fill-rule="nonzero" d="M.451 5.769L2.715.733C2.915.287 3.36 0 3.848 0H14.13c.489 0 .932.287 1.132.733l2.264 5.036C18.172 7.2 17.228 8.895 15.661 9h-.164c-.932 0-1.78-.54-2.175-1.384a2.4 2.4 0 0 1-4.333.043 2.4 2.4 0 0 1-4.332-.035A2.403 2.403 0 0 1 2.482 9.01h-.165C.75 8.895-.193 7.195.451 5.769zm.487 11.996h9.105a.208.208 0 0 0 .152-.353 5.164 5.164 0 0 1-.965-1.448.32.32 0 0 0-.291-.193h-5.21V9.86a3.46 3.46 0 0 1-1.247.23h-.24a3.34 3.34 0 0 1-.502-.074v5.753H.938a1 1 0 0 0 0 1.996zm10.228-1.075a4.003 4.003 0 1 1 5.663 0 4.008 4.008 0 0 1-5.667.002l.004-.002zm.749-2.831c0 .32.26.579.579.579h.934v.942a.579.579 0 0 0 1.158 0v-.948h.942a.579.579 0 0 0 0-1.14h-.965v-.944a.579.579 0 0 0-1.14 0v.941h-.943a.579.579 0 0 0-.57.572l.005-.002z"/>
</svg>
