<svg xmlns="http://www.w3.org/2000/svg" width="24" height="14" viewBox="0 0 24 14">
    <path fill="#5898D7" fill-rule="nonzero" d="M21.633 0c-1.305 0-2.366 1.13-2.366 2.52 0 .743.304 1.413.786 1.874L17.85 7.326a2.278 2.278 0 0 0-1.575-.64 2.3 2.3 0 0 0-1.755.83l-4.26-2.165a2.68 2.68 0 0 0 .037-.447c0-1.39-1.061-2.52-2.366-2.52-1.305 0-2.367 1.13-2.367 2.52 0 .474.124.918.338 1.297L3.069 9.073a2.226 2.226 0 0 0-.702-.113C1.062 8.96 0 10.09 0 11.48 0 12.87 1.062 14 2.367 14s2.366-1.13 2.366-2.52c0-.705-.273-1.342-.712-1.8l2.623-2.662c.37.257.812.406 1.286.406.78 0 1.474-.405 1.905-1.027l4.164 2.116c-.06.22-.092.452-.092.692 0 1.39 1.062 2.52 2.367 2.52s2.367-1.13 2.367-2.52a2.65 2.65 0 0 0-.158-.902l2.522-3.354c.2.059.41.09.628.09C22.938 5.04 24 3.91 24 2.52 24 1.13 22.938 0 21.633 0z"/>
</svg>
