<svg xmlns="http://www.w3.org/2000/svg" width="15" height="16" viewBox="0 0 15 16">
    <g fill="#B9B9E0" fill-rule="nonzero">
        <path d="M13.847.317A.489.489 0 0 0 13.394 0H1.609a.483.483 0 0 0-.454.317L.24 2.787h14.523l-.916-2.47zM.107 3.591v2.091c0 .59.476 1.067 1.058 1.067.58 0 1.056-.477 1.056-1.067 0 .59.474 1.067 1.056 1.067.581 0 1.055-.477 1.055-1.067 0 .59.474 1.067 1.056 1.067.582 0 1.056-.477 1.056-1.067 0 .59.474 1.067 1.056 1.067.582 0 1.056-.477 1.056-1.067 0 .59.476 1.067 1.058 1.067.582 0 1.056-.477 1.056-1.067 0 .59.474 1.067 1.056 1.067.581 0 1.055-.477 1.055-1.067 0 .59.474 1.067 1.056 1.067.582 0 1.056-.477 1.056-1.067v-2.09H.107zM14.464 14.783h-.11V7.165a1.55 1.55 0 0 1-1.572-.327 1.55 1.55 0 0 1-1.056.418 1.55 1.55 0 0 1-1.056-.418 1.55 1.55 0 0 1-2.114 0 1.55 1.55 0 0 1-1.056.418 1.55 1.55 0 0 1-1.056-.418 1.55 1.55 0 0 1-1.056.418 1.55 1.55 0 0 1-1.055-.418 1.55 1.55 0 0 1-1.056.418 1.55 1.55 0 0 1-1.056-.418 1.55 1.55 0 0 1-1.577.327v7.618H.536a.43.43 0 0 0-.43.433c0 .238.191.43.43.43h13.929a.429.429 0 0 0 .429-.43.43.43 0 0 0-.43-.433zM9.731 8.71c0-.07.055-.126.123-.126h1.562c.068 0 .123.056.123.126v4.712c0 .07-.055.13-.123.13H9.854a.127.127 0 0 1-.123-.13V8.71zm-7.392 6.073V9.714H5.39v5.069H2.339z"/>
    </g>
</svg>
