<svg xmlns="http://www.w3.org/2000/svg" width="16" height="18" viewBox="0 0 16 18">
    <g fill="#B9B9E0" fill-rule="nonzero">
        <path d="M7.788 7.056v10.536L1.29 15.729V10.36l5.081.29zM14.4 6.816L8.3 6.443l1.511 3.87 6.099-.371z"/>
        <path d="M8.212 7.056l1.418 3.596 5.08-.291v5.368l-6.498 1.863zM1.6 6.816L.09 9.942l6.098.372L7.7 6.444zM11.373 1.883c0 .995-.81 1.806-1.806 1.806a1.807 1.807 0 1 1 1.806-1.806zM6.805 1.828a.979.979 0 0 1-1.956 0 .978.978 0 0 1 1.956 0zM11.828 5.24a.979.979 0 0 1-1.955 0 .978.978 0 0 1 1.955 0zM8.718 4.554a.979.979 0 0 1-1.956 0 .979.979 0 0 1 1.956 0zM5.926 5.055c0 .691-.562 1.254-1.254 1.254a1.254 1.254 0 1 1 1.254-1.254z"/>
    </g>
</svg>
