<svg xmlns="http://www.w3.org/2000/svg" width="16" height="27" viewBox="0 0 16 27">
    <g fill="#B9B9E0" fill-rule="nonzero">
        <path d="M9.005.277a2.12 2.12 0 0 0-.629-.161 2.153 2.153 0 0 0-2.348 1.939 2.154 2.154 0 0 0 1.921 2.364 2.137 2.137 0 0 0 1.884-.8c.596.501 1.353 2.137 2.548-.071C10.854 4.772 10.908.939 9.005.278zM4.54 17.686l.102-.182-.11.177z"/>
        <path d="M14.068 14.048l-.656.19a1.177 1.177 0 0 0-.801-.695l-3.149-8.33H6.584s-.837 1.923-1.325 2.501c-.349.413-.444.979-.128 1.418l.194.27-2.653 3.857a1.172 1.172 0 0 0-.97.89l-.68-.089-.946 5.593 4.136.513.473-5.629-.68-.088a1.163 1.163 0 0 0-.171-.643l1.852-2.435-.742 8.282h.751l.284 6.717h1.286l.386-6.717h.028l.283 6.717H9.25l.386-6.717h.749s-.428-3.866-.61-5.711c-.092-.92-.161-2.647-.212-4.325l1.935 4.24a1.168 1.168 0 0 0-.317 1.032l-.658.191 1.381 5.74 3.953-1.167-1.788-5.605zm-11.986.15a.79.79 0 0 1 .859-.565.789.789 0 0 1 .684.767l-1.543-.201zm10.025-.278a.794.794 0 0 1 .937.426l-1.496.436a.79.79 0 0 1 .559-.862z"/>
    </g>
</svg>
