<svg xmlns="http://www.w3.org/2000/svg" width="15" height="17" viewBox="0 0 15 17">
    <g fill="#D7843F" fill-rule="nonzero">
        <path d="M6.591 7.81c.22.045.45-.207.605-.463L1.6.042.143 1.157l5.494 7.174c.192-.269.528-.606.954-.521zM6.51 8.218c-.233-.048-.46.242-.572.413l2.118 1.35-.68-2.171c-.205.25-.504.481-.867.408z"/>
        <path d="M4.98.902V3.78l2.663 3.488 1.152 3.677L5.456 8.82l.014-.021-.49-.64v8.05h9.877V.903H4.979zm8.48 14.473H6.376v-.209h7.084v.209zm0-2.5H6.376v-.209h7.084v.209zm0-2.5H9.805v-.209h3.655v.209zm0-2.5H8.972v-.209h4.488v.209zm0-2.5H7.21v-.209h6.25v.209zm0-2.5H6.376v-.209h7.084v.209z"/>
    </g>
</svg>
